<svg width="43" height="42" viewBox="0 0 43 42" fill="none" xmlns="http://www.w3.org/2000/svg">
<path d="M33.0333 7.266C32.5349 7.266 32.0477 7.4138 31.6333 7.6907C31.2189 7.9676 30.8959 8.36117 30.7052 8.82164C30.5144 9.28211 30.4645 9.78879 30.5618 10.2776C30.659 10.7665 30.899 11.2155 31.2514 11.5679C31.6039 11.9203 32.0529 12.1603 32.5417 12.2576C33.0305 12.3548 33.5372 12.3049 33.9977 12.1142C34.4582 11.9234 34.8517 11.6004 35.1286 11.186C35.4055 10.7716 35.5533 10.2844 35.5533 9.786C35.5533 9.11765 35.2878 8.47668 34.8152 8.00409C34.3427 7.5315 33.7017 7.266 33.0333 7.266ZM42.6933 12.348C42.6525 10.6056 42.3262 8.88175 41.7273 7.245C41.1934 5.84458 40.3623 4.57648 39.2913 3.528C38.2515 2.45159 36.9804 1.62577 35.5743 1.113C33.9419 0.495938 32.2161 0.162141 30.4713 0.126C28.2453 -1.17347e-07 27.5313 0 21.8193 0C16.1073 0 15.3933 -1.17347e-07 13.1673 0.126C11.4226 0.162141 9.69676 0.495938 8.06434 1.113C6.66086 1.63096 5.3909 2.45608 4.34734 3.528C3.27093 4.56787 2.44511 5.83892 1.93234 7.245C1.31527 8.87742 0.981477 10.6032 0.945336 12.348C0.819336 14.574 0.819336 15.288 0.819336 21C0.819336 26.712 0.819336 27.426 0.945336 29.652C0.981477 31.3968 1.31527 33.1226 1.93234 34.755C2.44511 36.1611 3.27093 37.4321 4.34734 38.472C5.3909 39.5439 6.66086 40.369 8.06434 40.887C9.69676 41.5041 11.4226 41.8379 13.1673 41.874C15.3933 42 16.1073 42 21.8193 42C27.5313 42 28.2453 42 30.4713 41.874C32.2161 41.8379 33.9419 41.5041 35.5743 40.887C36.9804 40.3742 38.2515 39.5484 39.2913 38.472C40.367 37.4274 41.1988 36.1582 41.7273 34.755C42.3262 33.1183 42.6525 31.3944 42.6933 29.652C42.6933 27.426 42.8193 26.712 42.8193 21C42.8193 15.288 42.8193 14.574 42.6933 12.348ZM38.9133 29.4C38.898 30.733 38.6566 32.0538 38.1993 33.306C37.864 34.2199 37.3255 35.0457 36.6243 35.721C35.9432 36.4151 35.1191 36.9525 34.2093 37.296C32.9571 37.7533 31.6364 37.9947 30.3033 38.01C28.2033 38.115 27.4263 38.136 21.9033 38.136C16.3803 38.136 15.6033 38.136 13.5033 38.01C12.1192 38.0359 10.741 37.8228 9.42934 37.38C8.55948 37.019 7.77318 36.4828 7.11934 35.805C6.42232 35.1304 5.89051 34.3039 5.56534 33.39C5.05263 32.1198 4.76827 30.7691 4.72534 29.4C4.72534 27.3 4.59934 26.523 4.59934 21C4.59934 15.477 4.59934 14.7 4.72534 12.6C4.73475 11.2372 4.98353 9.88668 5.46034 8.61C5.83003 7.72361 6.39749 6.93348 7.11934 6.3C7.75734 5.57795 8.54584 5.0045 9.42934 4.62C10.7094 4.15809 12.0585 3.91667 13.4193 3.906C15.5193 3.906 16.2963 3.78 21.8193 3.78C27.3423 3.78 28.1193 3.78 30.2193 3.906C31.5524 3.92129 32.8731 4.16272 34.1253 4.62C35.0796 4.97417 35.9361 5.54998 36.6243 6.3C37.3125 6.94507 37.8502 7.73374 38.1993 8.61C38.6661 9.88876 38.9076 11.2387 38.9133 12.6C39.0183 14.7 39.0393 15.477 39.0393 21C39.0393 26.523 39.0183 27.3 38.9133 29.4ZM21.8193 10.227C19.6895 10.2312 17.6088 10.8665 15.8399 12.0528C14.0711 13.2391 12.6935 14.923 11.8814 16.8919C11.0692 18.8608 10.8589 21.0262 11.2769 23.1146C11.695 25.2029 12.7226 27.1205 14.2301 28.6251C15.7376 30.1296 17.6572 31.1535 19.7463 31.5675C21.8355 31.9815 24.0005 31.7669 25.9678 30.9509C27.9351 30.1349 29.6164 28.7541 30.7992 26.983C31.982 25.2118 32.6133 23.1298 32.6133 21C32.6161 19.5827 32.3387 18.1789 31.7969 16.8692C31.2552 15.5595 30.4599 14.3699 29.4568 13.3687C28.4536 12.3675 27.2624 11.5745 25.9517 11.0354C24.641 10.4962 23.2366 10.2215 21.8193 10.227ZM21.8193 27.993C20.4363 27.993 19.0842 27.5829 17.9342 26.8145C16.7842 26.0461 15.8879 24.9539 15.3586 23.6761C14.8294 22.3983 14.6909 20.9922 14.9607 19.6357C15.2305 18.2792 15.8965 17.0332 16.8745 16.0552C17.8525 15.0772 19.0986 14.4112 20.4551 14.1414C21.8116 13.8715 23.2176 14.01 24.4954 14.5393C25.7732 15.0686 26.8654 15.9649 27.6338 17.1149C28.4022 18.2649 28.8123 19.6169 28.8123 21C28.8123 21.9183 28.6315 22.8277 28.28 23.6761C27.9286 24.5245 27.4135 25.2954 26.7641 25.9448C26.1148 26.5942 25.3439 27.1093 24.4954 27.4607C23.647 27.8121 22.7377 27.993 21.8193 27.993Z" fill="#FFFFF0"/>
</svg>
