<svg width="45" height="26" viewBox="0 0 45 26" fill="none" xmlns="http://www.w3.org/2000/svg">
<path d="M15.4381 0.615999L18.5101 6.136L17.7901 6.376C15.0861 1.816 8.97413 1.368 6.17413 1.368V11.656H7.69413C9.95013 11.656 11.4381 9.56 11.4381 7.896H12.2061V16.2H11.4381C11.4381 14.536 9.95013 12.424 7.69413 12.424H6.17413V23.48C6.36613 24.168 7.02213 24.792 7.69413 25H0.078125C0.766125 24.792 1.40613 24.168 1.61413 23.48V2.136C1.40613 1.448 0.766125 0.823999 0.078125 0.615999H6.17413C8.28613 0.615999 11.1661 1.128 13.1981 1.128C14.2221 1.128 15.0381 0.999998 15.4381 0.615999ZM40.8913 0.615999L43.9633 6.136L43.2432 6.376C40.5393 1.816 34.4273 1.368 31.6273 1.368V11.656H33.1473C35.4033 11.656 36.8913 9.56 36.8913 7.896H37.6593V16.2H36.8913C36.8913 14.536 35.4033 12.424 33.1473 12.424H31.6273V23.48C31.8193 24.168 32.4753 24.792 33.1473 25H25.5312C26.2193 24.792 26.8593 24.168 27.0673 23.48V2.136C26.8593 1.448 26.2193 0.823999 25.5312 0.615999H31.6273C33.7393 0.615999 36.6193 1.128 38.6513 1.128C39.6753 1.128 40.4913 0.999998 40.8913 0.615999Z" fill="#FFFFF0"/>
<path d="M22 15.5928C22 16.9735 20.8807 18.0928 19.5 18.0928C18.1193 18.0928 17 16.9735 17 15.5928C17 14.2121 18.1193 13.0928 19.5 13.0928C21.1986 13.0928 22 14.2121 22 15.5928Z" stroke="#FFFFF0" stroke-width="1.5"/>
<path d="M21 22.5C21 24.433 19.5 25 18.5 25C16.567 25 15 23.433 15 21.5C15 19.567 16.567 18 18.5 18C20.433 18 18.5 21 21 22.5Z" stroke="#FFFFF0" stroke-width="1.5"/>
</svg>
