<svg width="44" height="44" viewBox="0 0 44 44" fill="none" xmlns="http://www.w3.org/2000/svg">
<path d="M41.3429 38.1883L33.7898 30.6574C36.2267 27.5528 37.549 23.7189 37.5441 19.7721C37.5441 16.2571 36.5018 12.821 34.549 9.89844C32.5962 6.97584 29.8205 4.69795 26.5731 3.35282C23.3257 2.0077 19.7523 1.65575 16.3049 2.34149C12.8575 3.02723 9.69079 4.71986 7.20532 7.20532C4.71986 9.69079 3.02723 12.8575 2.34149 16.3049C1.65575 19.7523 2.0077 23.3257 3.35282 26.5731C4.69795 29.8205 6.97584 32.5962 9.89844 34.549C12.821 36.5018 16.2571 37.5441 19.7721 37.5441C23.7189 37.549 27.5528 36.2267 30.6574 33.7898L38.1883 41.3429C38.3949 41.5511 38.6406 41.7164 38.9113 41.8292C39.182 41.9419 39.4723 42 39.7656 42C40.0589 42 40.3492 41.9419 40.62 41.8292C40.8907 41.7164 41.1364 41.5511 41.3429 41.3429C41.5511 41.1364 41.7164 40.8907 41.8292 40.62C41.9419 40.3492 42 40.0589 42 39.7656C42 39.4723 41.9419 39.182 41.8292 38.9113C41.7164 38.6406 41.5511 38.3949 41.3429 38.1883ZM6.44302 19.7721C6.44302 17.1358 7.22475 14.5588 8.68937 12.3668C10.154 10.1749 12.2357 8.46648 14.6713 7.45763C17.1068 6.44879 19.7868 6.18483 22.3724 6.69913C24.958 7.21344 27.333 8.48291 29.1971 10.347C31.0612 12.2111 32.3307 14.5861 32.845 17.1717C33.3593 19.7573 33.0953 22.4373 32.0865 24.8729C31.0776 27.3084 29.3692 29.3901 27.1773 30.8547C24.9853 32.3194 22.4083 33.1011 19.7721 33.1011C16.237 33.1011 12.8467 31.6968 10.347 29.1971C7.84733 26.6974 6.44302 23.3071 6.44302 19.7721Z" fill="#878787" stroke="#878787" stroke-width="3"/>
</svg>
