<svg width="350" height="350" viewBox="0 0 350 350" fill="none" xmlns="http://www.w3.org/2000/svg">
<path d="M20.3713 337.066C26.5783 343.793 52.1447 332.063 72.3244 322.656C87.4455 315.629 147.957 290.801 178.035 277.922C186.156 274.449 197.969 269.91 206.473 258.727C214.02 248.773 234.035 206.5 193.731 163.68C152.824 120.203 110.688 132.207 94.9377 143.363C85.6682 149.926 78.1213 164.719 74.7307 172.238C60.4025 204.012 39.9768 262.227 31.6643 285.113C25.5666 301.984 14.2189 330.395 20.3713 337.066Z" fill="#FFC107"/>
<path d="M70.6836 181.809C71.0664 186.566 72.0234 194.305 75.3047 209.207C77.5469 219.434 81.2109 230.152 84.1914 237.234C93.1328 258.535 105.684 267.121 118.398 274.012C140 285.715 154.684 287.902 154.684 287.902L137.074 295.094C137.074 295.094 126.41 292.879 111.863 285.715C98 278.879 83.5625 267.313 73.0078 244.672C68.4414 234.855 65.7891 225.34 64.2578 217.793C62.3711 208.441 62.0703 203.137 62.0703 203.137L70.6836 181.809Z" fill="#FF8F00"/>
<path d="M49.0547 237.262C49.0547 237.262 51.2422 255.008 65.8984 277.402C83.0703 303.598 107.051 307.891 107.051 307.891L91.1094 314.453C91.1094 314.453 73.3086 309.012 56.3828 285.906C45.8281 271.496 42.875 254.27 42.875 254.27L49.0547 237.262Z" fill="#FF8F00"/>
<path d="M33.8789 279.316C33.8789 279.316 37.8711 294.629 46.6211 306.059C57.0391 319.703 70.3008 323.668 70.3008 323.668L58.0781 329.082C58.0781 329.082 48.8086 327.141 38.6641 314.289C30.9531 304.527 28.7656 293.316 28.7656 293.316L33.8789 279.316Z" fill="#FF8F00"/>
<path opacity="0.44" d="M27.2339 318.199C26.6871 316.969 26.6871 315.574 27.2613 314.371L96.9058 169.941L108.363 213.008L35.0816 318.855C33.1129 321.809 28.6832 321.426 27.2339 318.199Z" fill="#FFFFF0"/>
<path d="M113.887 227.473C146.426 265.535 183.477 260.777 195.809 251.152C208.168 241.5 217.93 208.332 185.528 170.898C151.567 131.687 113.121 142.871 104.235 151.348C95.348 159.824 84.0277 192.555 113.887 227.473Z" fill="url(#paint0_linear_128_6305)"/>
<path d="M225.641 243.141C213.773 233.188 207.457 234.965 198.98 238.492C188.043 243.031 170.844 246.395 147.492 238.492L154.52 221.566C168.383 226.242 178.418 223.973 187.086 218.859C198.242 212.297 213.5 203.301 237.234 223.234C247.133 231.547 257.277 237.07 264.715 234.555C270.129 232.75 273 224.684 274.449 218.258C274.586 217.684 274.805 216.043 274.969 214.594C276.281 204.559 278.469 182.902 294.602 171.828C311.855 159.988 329.984 159.988 329.984 159.988L333.266 192.582C324.926 191.352 319.129 193.047 314.234 195.754C295.805 206.008 311.855 245.383 283.172 258.617C255.582 271.441 233.023 249.32 225.641 243.141Z" fill="#03A9F4"/>
<path d="M124.141 201.578L112.274 190.941C134.067 166.605 128.324 148.723 124.141 135.707C123.293 133.082 122.5 130.594 121.981 128.215C120.121 119.793 119.738 112.465 120.313 106.066C111.945 95.6484 108.254 84.7383 108.008 84C102.922 68.6055 106.75 53.5938 115.527 39.5117C133.274 10.9375 165.402 10.9375 165.402 10.9375L176.121 39.6211C167.973 39.293 141.258 39.7031 133.055 52.6367C122.692 68.9336 129.5 78.9961 129.992 80.1445C131.988 77.5469 134.012 75.4688 135.817 73.8555C148.914 62.2344 160.289 60.5664 167.535 61.2227C175.684 61.9609 183.067 66.0625 188.344 72.7891C194.113 80.1719 196.492 89.7695 194.66 98.4922C192.883 106.996 187.223 114.188 178.719 118.754C163.871 126.738 151.512 125.645 143.227 122.883C143.281 123.074 143.309 123.293 143.363 123.484C143.664 124.852 144.266 126.766 144.977 128.98C149.817 143.965 158.813 167.754 124.141 201.578ZM144.238 98.957C145.824 100.105 147.492 101.062 149.215 101.746C154.957 104.043 161.219 103.277 168.328 99.4492C172.512 97.207 173.004 94.8008 173.168 94.0078C173.66 91.6289 172.84 88.5938 171.063 86.3242C169.504 84.3281 167.699 83.2891 165.539 83.0703C161.438 82.7148 155.887 85.3125 150.336 90.2617C147.684 92.6406 145.66 95.5664 144.238 98.957Z" fill="#F44336"/>
<path d="M171.637 206.035L154.656 205.57C154.656 205.57 162.723 160.016 188.836 152.359C193.73 150.938 199.09 149.488 204.477 148.695C207.676 148.203 212.734 147.465 215.223 146.535C215.797 142.242 213.992 136.773 211.969 130.566C210.383 125.754 208.742 120.805 207.867 115.391C206.172 104.836 208.988 95.5117 215.797 89.0859C224.109 81.293 237.535 78.8047 252.684 82.25C261.324 84.2188 267.695 88.457 273.301 92.1758C281.312 97.5078 285.988 100.215 295.777 93.625C307.617 85.6406 292.141 54.3867 283.91 36.3398L314.617 23.543C318.746 32.5664 338.68 78.9961 325.527 105.492C321.098 114.406 313.469 120.312 303.461 122.527C281.695 127.395 268.953 118.918 259.656 112.738C255.254 109.812 251.398 107.516 247.215 106.312C218.148 98.0273 258.727 140.793 239.723 160.016C228.32 171.527 200.457 174.562 198.652 175C180.715 179.32 171.637 206.035 171.637 206.035Z" fill="#F48FB1"/>
<path d="M120.285 106.066C119.766 112.082 119.52 115.664 121.078 123.484C128.598 129.008 144.977 129.008 144.977 129.008C144.266 126.793 143.637 124.879 143.364 123.512C143.309 123.32 143.282 123.102 143.227 122.91C126.575 114.598 120.285 106.066 120.285 106.066Z" fill="#C92B27"/>
<path d="M86.2148 133L57.9414 119.137L72.0234 98.793L94.1992 113.477L86.2148 133Z" fill="#FFC107"/>
<path d="M44.543 94.6094C30.1055 92.668 15.3945 80.418 13.7812 79.0234L27.9727 62.3711C32.2656 66.0078 41.3711 72.1055 47.4688 72.9258L44.543 94.6094Z" fill="#FFFFF0"/>
<path d="M70.0273 58.1602L49.2461 51.3516C51.625 44.0781 52.2539 36.2305 51.0234 28.6562L72.625 25.1836C74.4023 36.1758 73.5 47.5781 70.0273 58.1602Z" fill="#03A9F4"/>
<path d="M199.809 41.9041L221.178 37.2294L227.349 65.4373L205.979 70.112L199.809 41.9041Z" fill="#FFFFF0"/>
<path d="M252.82 48.5898L237.781 32.7031C245.656 25.2383 247.461 15.4766 247.461 15.3672L269.063 18.8945C268.789 20.6172 266.027 36.0938 252.82 48.5898Z" fill="#FFC107"/>
<path d="M261.177 132.839L280.282 126.869L286.807 147.748L267.702 153.719L261.177 132.839Z" fill="#FFFFF0"/>
<path d="M266.738 309.066L245 306.496C245.93 298.758 240.16 289.27 238.574 287.164L256.074 274.039C257.387 275.762 268.789 291.539 266.738 309.066Z" fill="#F44336"/>
<path d="M329.137 281.34C320.961 280.109 312.594 279.617 304.336 279.918L303.598 258.043C313.195 257.715 322.902 258.262 332.391 259.711L329.137 281.34Z" fill="#FFFFF0"/>
<path d="M299.725 311.451L315.094 295.884L336.245 316.768L320.875 332.334L299.725 311.451Z" fill="#F48FB1"/>
<path d="M254.567 173.171L270.372 191.242L252.301 207.046L236.497 188.975L254.567 173.171Z" fill="#F44336"/>
<defs>
<linearGradient id="paint0_linear_128_6305" x1="203.395" y1="169.09" x2="122" y2="217.927" gradientUnits="userSpaceOnUse">
<stop offset="0.0235" stop-color="#8F4700"/>
<stop offset="1" stop-color="#703E2D"/>
</linearGradient>
</defs>
</svg>
